<svg data-v-e3c699f6="" t="1711471410840" viewBox="0 0 1024 1024" version="1.1" xmlns="http://www.w3.org/2000/svg" p-id="5007" width="25" height="20" class="icon"><path data-v-e3c699f6="" d="M882.3 267.8h-734c-25.6 0-46.5-20.9-46.5-46.5s20.9-46.5 46.5-46.5h734c25.6 0 46.5 20.9 46.5 46.5s-20.9 46.5-46.5 46.5zM882.3 572.2h-734c-25.6 0-46.5-20.9-46.5-46.5s20.9-46.5 46.5-46.5h734c25.6 0 46.5 20.9 46.5 46.5s-20.9 46.5-46.5 46.5zM882.3 876.6h-734c-25.6 0-46.5-20.9-46.5-46.5s20.9-46.5 46.5-46.5h734c25.6 0 46.5 20.9 46.5 46.5s-20.9 46.5-46.5 46.5z" fill="#515151" p-id="5008"></path></svg>